<svg width="150" height="150" viewBox="0 0 150 150" fill="none" xmlns="http://www.w3.org/2000/svg">
<path d="M131 80L136 80L136 70L131 70L131 80ZM14.4645 71.4645C12.5118 73.4171 12.5118 76.5829 14.4645 78.5355L46.2843 110.355C48.2369 112.308 51.4027 112.308 53.3553 110.355C55.308 108.403 55.308 105.237 53.3553 103.284L25.0711 75L53.3553 46.7157C55.308 44.7631 55.308 41.5973 53.3553 39.6447C51.4027 37.692 48.2369 37.692 46.2843 39.6447L14.4645 71.4645ZM131 70L18 70L18 80L131 80L131 70Z" fill="white"/>
</svg>
